<?xml version="1.0" encoding="UTF-8" standalone="no"?>
<!DOCTYPE svg PUBLIC "-//W3C//DTD SVG 1.1//EN" "http://www.w3.org/Graphics/SVG/1.1/DTD/svg11.dtd">
<svg width="100%" height="100%" viewBox="0 0 4725 4725" version="1.1" xmlns="http://www.w3.org/2000/svg" xmlns:xlink="http://www.w3.org/1999/xlink" xml:space="preserve" xmlns:serif="http://www.serif.com/" style="fill-rule:evenodd;clip-rule:evenodd;stroke-linejoin:round;stroke-miterlimit:2;">
    <g transform="matrix(2.737063,-1.600294,2.539522,4.343473,-7285.873086,-5308.097099)">
        <path d="M1444,1944L1444.711,2234.097L1224.51,2235.002L975,2237L975,1944L1444,1944Z" style="fill:rgb(0,183,233);"/>
    </g>
    <g transform="matrix(2.737063,-1.600294,2.539522,4.343473,-7285.873086,-5308.097099)">
        <path d="M1444,1944L1444.711,2234.097L975,2237L975,1944L1444,1944Z" style="fill:rgb(0,183,233);"/>
    </g>
    <g transform="matrix(2.737063,-1.600294,2.539522,4.343473,-5222.989183,-4254.997574)">
        <path d="M1444,1944L1444.711,2234.097L975,2237L975,1944L1444,1944Z" style="fill:rgb(0,183,233);"/>
    </g>
    <g transform="matrix(2.737063,-1.600294,2.539522,4.343473,-6799.976258,-3741.352684)">
        <path d="M1444,1944L1444.711,2234.097L1224.51,2235.002L975,2237L975,1944L1444,1944Z" style="fill:rgb(178,180,179);"/>
    </g>
    <g transform="matrix(2.737063,-1.600294,2.539522,4.343473,-5711.607998,-5823.186964)">
        <path d="M1444,1944L1446.701,2234.084L975,2237L975,1944L1444,1944Z" style="fill:rgb(178,180,179);"/>
    </g>
    <g transform="matrix(0.413418,-0.241715,0.389623,0.666391,554.160127,-307.82008)">
        <path d="M1444,1944L1444.711,2234.097L1224.51,2235.002L975,2237L975,1944L1444,1944Z" style="fill:rgb(39,73,146);"/>
    </g>
    <g transform="matrix(0.413418,-0.241715,0.389623,0.666391,1039.959226,1249.815355)">
        <path d="M1444,1944L1444.711,2234.097L1224.51,2235.002L975,2237L975,1944L1444,1944Z" style="fill:rgb(39,73,146);"/>
    </g>
    <g transform="matrix(0.413418,-0.241715,0.389623,0.666391,2626.443778,754.591587)">
        <path d="M1444,1944L1444.711,2234.097L1224.51,2235.002L975,2237L975,1944L1444,1944Z" style="fill:rgb(39,73,146);"/>
    </g>
    <g transform="matrix(0.413418,-0.241715,0.389623,0.666391,-526.785189,1778.136146)">
        <path d="M1444,1944L1444.711,2234.097L1224.51,2235.002L975,2237L975,1944L1444,1944Z" style="fill:rgb(39,73,146);"/>
    </g>
    <g transform="matrix(0.413418,-0.241715,0.389623,0.666391,1540.953079,2831.741402)">
        <path d="M1444,1944L1444.711,2234.097L1224.51,2235.002L975,2237L975,1944L1444,1944Z" style="fill:rgb(39,73,146);"/>
    </g>
</svg>
